<?xml version="1.0" encoding="iso-8859-1"?>
<!-- Generator: Adobe Illustrator 19.0.0, SVG Export Plug-In . SVG Version: 6.00 Build 0)  -->
<svg version="1.1" id="Capa_1" xmlns="http://www.w3.org/2000/svg" xmlns:xlink="http://www.w3.org/1999/xlink" x="0px" y="0px"
	 viewBox="0 0 512 512" style="enable-background:new 0 0 512 512;" xml:space="preserve">
<g>
	<g transform="translate(1 1)">
		<rect x="58.733" y="50.2" style="fill:#A4C2F7;" width="290.133" height="401.067"/>
		
			<linearGradient id="SVGID_1_" gradientUnits="userSpaceOnUse" x1="-49.9438" y1="651.5683" x2="-48.6857" y2="650.7385" gradientTransform="matrix(264.5334 0 0 -401.0667 13236.3955 261406.6875)">
			<stop  offset="0" style="stop-color:#D3DFF2"/>
			<stop  offset="0.172" style="stop-color:#D3DFF2"/>
			<stop  offset="0.2" style="stop-color:#D3DFF2"/>
			<stop  offset="0.2" style="stop-color:#DAE2F2"/>
			<stop  offset="0.201" style="stop-color:#EBEAF2"/>
			<stop  offset="0.201" style="stop-color:#F6EFF2"/>
			<stop  offset="0.202" style="stop-color:#FDF2F2"/>
			<stop  offset="0.205" style="stop-color:#FFF3F2"/>
			<stop  offset="0.252" style="stop-color:#FFF3F2"/>
			<stop  offset="0.26" style="stop-color:#FFF3F2"/>
			<stop  offset="0.26" style="stop-color:#D3DFF2"/>
			<stop  offset="0.397" style="stop-color:#D3DFF2"/>
			<stop  offset="0.42" style="stop-color:#D3DFF2"/>
			<stop  offset="0.42" style="stop-color:#DAE2F2"/>
			<stop  offset="0.421" style="stop-color:#EBEAF2"/>
			<stop  offset="0.421" style="stop-color:#F6EFF2"/>
			<stop  offset="0.422" style="stop-color:#FDF2F2"/>
			<stop  offset="0.425" style="stop-color:#FFF3F2"/>
			<stop  offset="0.489" style="stop-color:#FFF3F2"/>
			<stop  offset="0.5" style="stop-color:#FFF3F2"/>
			<stop  offset="0.5" style="stop-color:#F8F0F2"/>
			<stop  offset="0.5" style="stop-color:#E7E8F2"/>
			<stop  offset="0.5" style="stop-color:#DCE3F2"/>
			<stop  offset="0.5" style="stop-color:#D5E0F2"/>
			<stop  offset="0.501" style="stop-color:#D3DFF2"/>
			<stop  offset="0.706" style="stop-color:#D3DFF2"/>
			<stop  offset="0.74" style="stop-color:#D3DFF2"/>
			<stop  offset="0.741" style="stop-color:#FFF3F2"/>
			<stop  offset="0.835" style="stop-color:#FFF3F2"/>
			<stop  offset="0.85" style="stop-color:#FFF3F2"/>
			<stop  offset="0.851" style="stop-color:#D3DFF2"/>
		</linearGradient>
		<rect x="58.733" y="50.2" style="fill:url(#SVGID_1_);" width="264.533" height="401.067"/>
		<g>
			<path style="fill:#A4C2F7;" d="M348.867,24.6v51.2H58.733V24.6C58.761,15.186,66.386,7.561,75.8,7.533h256
				C341.214,7.561,348.839,15.186,348.867,24.6z"/>
			<path style="fill:#A4C2F7;" d="M348.867,425.667V485.4c-0.028,9.414-7.653,17.039-17.067,17.067h-256
				c-9.414-0.028-17.039-7.653-17.067-17.067v-59.733H348.867z"/>
		</g>
		<g>
			<path style="fill:#E3E7F2;" d="M323.267,24.6v51.2H58.733V24.6C58.761,15.186,66.386,7.561,75.8,7.533h230.4
				C315.614,7.561,323.239,15.186,323.267,24.6z"/>
			<path style="fill:#E3E7F2;" d="M323.267,425.667V485.4c-0.028,9.414-7.653,17.039-17.067,17.067H75.8
				c-9.414-0.028-17.039-7.653-17.067-17.067v-59.733H323.267z"/>
		</g>
		<path style="fill:#A4C2F7;" d="M212.333,161.133H434.2c9.426,0,17.067,7.641,17.067,17.067v153.6
			c0,9.426-7.641,17.067-17.067,17.067H212.333c-9.426,0-17.067-7.641-17.067-17.067V178.2
			C195.267,168.774,202.908,161.133,212.333,161.133z"/>
		<path style="fill:#D4E1F4;" d="M425.667,178.2v153.6c-0.028,9.414-7.653,17.039-17.067,17.067H212.333
			c-9.397-0.07-16.997-7.67-17.067-17.067V177.773c0.18-6.884,4.492-12.982,10.923-15.445c0.378-0.193,0.78-0.336,1.195-0.427
			c1.598-0.517,3.269-0.777,4.949-0.768H408.6C418.014,161.161,425.639,168.786,425.667,178.2z"/>
		<path style="fill:#7FABFA;" d="M446.232,343.832c-3.161,3.241-7.504,5.059-12.032,5.035l-25.6,0
			c9.414-0.028,17.039-7.653,17.067-17.067v-8.533L446.232,343.832z"/>
		<path style="fill:#E3E7F2;" d="M425.667,323.267v8.533c-0.028,9.414-7.653,17.039-17.067,17.067H212.333
			c-4.528,0.024-8.871-1.793-12.032-5.035L319,225.133l12.8,4.267L425.667,323.267z"/>
		<path style="fill:#7FABFA;" d="M425.667,196.632V178.2c-0.028-9.414-7.653-17.039-17.067-17.067h25.6
			c9.245,0.037,16.795,7.399,17.067,16.64L425.667,196.632z"/>
		<path style="fill:#E3E7F2;" d="M425.667,178.2v18.432l-72.96,53.675l-29.44,21.76l-29.44-21.76l-98.56-72.533
			c0.18-6.884,4.492-12.982,10.923-15.445c0.378-0.193,0.78-0.336,1.195-0.427c1.598-0.517,3.269-0.777,4.949-0.768H408.6
			C418.014,161.161,425.639,168.786,425.667,178.2z"/>
		<path style="fill:#FFFFFF;" d="M75.8,502.467h25.6c-9.414-0.028-17.039-7.653-17.067-17.067V24.6
			c0.028-9.414,7.653-17.039,17.067-17.067H75.8C66.386,7.561,58.761,15.186,58.733,24.6v460.8
			C58.761,494.814,66.386,502.439,75.8,502.467z"/>
	</g>
	<g>
		<polygon style="fill:#FFFFFF;" points="68.267,76.8 68.267,187.733 68.267,426.667 51.2,426.667 51.2,187.733 51.2,76.8 		"/>
		<g>
			<path style="fill:#428DFF;" d="M59.733,119.467c4.713,0,8.533-3.821,8.533-8.533v-25.6h25.6c4.713,0,8.533-3.82,8.533-8.533
				c0-4.713-3.821-8.533-8.533-8.533h-25.6V25.6c0-4.713,3.821-8.533,8.533-8.533h256c4.713,0,8.533,3.821,8.533,8.533v42.667
				H145.067c-4.713,0-8.533,3.821-8.533,8.533c0,4.713,3.821,8.533,8.533,8.533h204.8c4.713,0,8.533-3.82,8.533-8.533V25.6
				c0-14.138-11.462-25.6-25.6-25.6h-256C62.662,0,51.2,11.462,51.2,25.6v85.333C51.2,115.646,55.021,119.467,59.733,119.467z"/>
			<path style="fill:#428DFF;" d="M62.976,137.216c-0.484-0.246-1.001-0.419-1.536-0.512c-0.564-0.095-1.135-0.152-1.707-0.171
				c-2.259,0.033-4.422,0.917-6.059,2.475c-0.771,0.816-1.38,1.772-1.792,2.816c-1.287,3.183-0.586,6.825,1.792,9.301
				c0.816,0.771,1.772,1.38,2.816,1.792c1.026,0.437,2.128,0.669,3.243,0.683c3.467,0.02,6.601-2.059,7.931-5.261
				c1.329-3.202,0.59-6.89-1.872-9.331l-1.28-1.024C64.036,137.661,63.52,137.403,62.976,137.216z"/>
			<path style="fill:#428DFF;" d="M196.267,460.8c-4.713,0-8.533,3.821-8.533,8.533c0,4.713,3.821,8.533,8.533,8.533h17.067
				c4.713,0,8.533-3.821,8.533-8.533c0-4.713-3.821-8.533-8.533-8.533H196.267z"/>
			<path style="fill:#428DFF;" d="M435.2,153.6h-76.8V128c0-4.713-3.821-8.533-8.533-8.533c-4.713,0-8.533,3.821-8.533,8.533v25.6
				h-128c-14.138,0-25.6,11.462-25.6,25.6v153.6c0,14.138,11.462,25.6,25.6,25.6h128v59.733h-25.6c-4.713,0-8.533,3.82-8.533,8.533
				s3.821,8.533,8.533,8.533h25.6v51.2c0,4.713-3.82,8.533-8.533,8.533h-256c-4.713,0-8.533-3.82-8.533-8.533v-51.2h196.267
				c4.713,0,8.533-3.82,8.533-8.533s-3.82-8.533-8.533-8.533H68.267V179.2c0-4.713-3.821-8.533-8.533-8.533S51.2,174.487,51.2,179.2
				v307.2c0,14.138,11.462,25.6,25.6,25.6h256c14.138,0,25.6-11.461,25.6-25.6v-128h76.8c14.138,0,25.6-11.462,25.6-25.6V179.2
				C460.8,165.062,449.339,153.6,435.2,153.6z M443.733,332.8c0,4.713-3.821,8.533-8.533,8.533H213.333
				c-4.713,0-8.533-3.82-8.533-8.533V179.2c0-4.713,3.82-8.533,8.533-8.533H435.2c4.713,0,8.533,3.821,8.533,8.533V332.8z"/>
			<path style="fill:#428DFF;" d="M425.037,199.782c-1.331-1.839-3.34-3.071-5.582-3.425c-2.242-0.354-4.533,0.2-6.365,1.539
				l-88.823,64.623l-88.849-64.623c-2.466-1.793-5.702-2.133-8.487-0.894c-2.786,1.24-4.698,3.871-5.018,6.903
				c-0.319,3.032,1.003,6.005,3.47,7.797l93.867,68.267c0.276,0.155,0.561,0.295,0.853,0.418c0.275,0.16,0.56,0.302,0.853,0.427
				c1.039,0.484,2.165,0.751,3.311,0.785c1.157-0.03,2.296-0.297,3.345-0.785c0.293-0.124,0.578-0.267,0.853-0.427
				c0.292-0.123,0.577-0.263,0.853-0.418l93.867-68.267C426.987,208.922,427.816,203.586,425.037,199.782z"/>
			<path style="fill:#428DFF;" d="M262.767,271.3l-38.4,38.4c-2.218,2.143-3.108,5.315-2.327,8.299
				c0.781,2.984,3.111,5.314,6.094,6.094c2.983,0.781,6.156-0.109,8.299-2.327l38.4-38.4c3.234-3.348,3.188-8.671-0.104-11.962
				C271.438,268.113,266.115,268.066,262.767,271.3z"/>
			<path style="fill:#428DFF;" d="M385.766,271.3c-3.348-3.234-8.671-3.188-11.962,0.104c-3.292,3.292-3.338,8.614-0.104,11.962
				l38.4,38.4c3.348,3.234,8.671,3.188,11.962-0.104c3.292-3.292,3.338-8.614,0.104-11.962L385.766,271.3z"/>
		</g>
	</g>
</g>
<g>
</g>
<g>
</g>
<g>
</g>
<g>
</g>
<g>
</g>
<g>
</g>
<g>
</g>
<g>
</g>
<g>
</g>
<g>
</g>
<g>
</g>
<g>
</g>
<g>
</g>
<g>
</g>
<g>
</g>
</svg>
