<?xml version="1.0" encoding="iso-8859-1"?>
<!-- Generator: Adobe Illustrator 19.0.0, SVG Export Plug-In . SVG Version: 6.00 Build 0)  -->
<svg version="1.1" id="Capa_1" xmlns="http://www.w3.org/2000/svg" xmlns:xlink="http://www.w3.org/1999/xlink" x="0px" y="0px"
	 viewBox="0 0 512 512" style="enable-background:new 0 0 512 512;" xml:space="preserve">
<g>
	<g transform="translate(1 1)">
		<rect x="109.933" y="50.2" style="fill:#A4C2F7;" width="290.133" height="401.067"/>
		
			<linearGradient id="SVGID_1_" gradientUnits="userSpaceOnUse" x1="-49.9438" y1="651.5683" x2="-48.6857" y2="650.7385" gradientTransform="matrix(264.5334 0 0 -401.0667 13287.5977 261406.6875)">
			<stop  offset="0" style="stop-color:#D3DFF2"/>
			<stop  offset="0.172" style="stop-color:#D3DFF2"/>
			<stop  offset="0.2" style="stop-color:#D3DFF2"/>
			<stop  offset="0.2" style="stop-color:#DAE2F2"/>
			<stop  offset="0.201" style="stop-color:#EBEAF2"/>
			<stop  offset="0.201" style="stop-color:#F6EFF2"/>
			<stop  offset="0.202" style="stop-color:#FDF2F2"/>
			<stop  offset="0.205" style="stop-color:#FFF3F2"/>
			<stop  offset="0.252" style="stop-color:#FFF3F2"/>
			<stop  offset="0.26" style="stop-color:#FFF3F2"/>
			<stop  offset="0.26" style="stop-color:#D3DFF2"/>
			<stop  offset="0.397" style="stop-color:#D3DFF2"/>
			<stop  offset="0.42" style="stop-color:#D3DFF2"/>
			<stop  offset="0.42" style="stop-color:#DAE2F2"/>
			<stop  offset="0.421" style="stop-color:#EBEAF2"/>
			<stop  offset="0.421" style="stop-color:#F6EFF2"/>
			<stop  offset="0.422" style="stop-color:#FDF2F2"/>
			<stop  offset="0.425" style="stop-color:#FFF3F2"/>
			<stop  offset="0.489" style="stop-color:#FFF3F2"/>
			<stop  offset="0.5" style="stop-color:#FFF3F2"/>
			<stop  offset="0.5" style="stop-color:#F8F0F2"/>
			<stop  offset="0.5" style="stop-color:#E7E8F2"/>
			<stop  offset="0.5" style="stop-color:#DCE3F2"/>
			<stop  offset="0.5" style="stop-color:#D5E0F2"/>
			<stop  offset="0.501" style="stop-color:#D3DFF2"/>
			<stop  offset="0.706" style="stop-color:#D3DFF2"/>
			<stop  offset="0.74" style="stop-color:#D3DFF2"/>
			<stop  offset="0.741" style="stop-color:#FFF3F2"/>
			<stop  offset="0.835" style="stop-color:#FFF3F2"/>
			<stop  offset="0.85" style="stop-color:#FFF3F2"/>
			<stop  offset="0.851" style="stop-color:#D3DFF2"/>
		</linearGradient>
		<rect x="109.933" y="50.2" style="fill:url(#SVGID_1_);" width="264.533" height="401.067"/>
		<g>
			<path style="fill:#A4C2F7;" d="M400.067,24.6v51.2H109.933V24.6c0.028-9.414,7.653-17.039,17.067-17.067h256
				C392.414,7.561,400.039,15.186,400.067,24.6z"/>
			<path style="fill:#A4C2F7;" d="M400.067,425.667V485.4c-0.028,9.414-7.653,17.039-17.067,17.067H127
				c-9.414-0.028-17.039-7.653-17.067-17.067v-59.733H400.067z"/>
		</g>
		<g>
			<path style="fill:#E3E7F2;" d="M374.467,24.6v51.2H109.933V24.6c0.028-9.414,7.653-17.039,17.067-17.067h230.4
				C366.814,7.561,374.439,15.186,374.467,24.6z"/>
			<path style="fill:#E3E7F2;" d="M374.467,425.667V485.4c-0.028,9.414-7.653,17.039-17.067,17.067H127
				c-9.414-0.028-17.039-7.653-17.067-17.067v-59.733H374.467z"/>
			<path style="fill:#E3E7F2;" d="M197.827,173.652l14.131,21.188c2.817,4.224,1.893,9.907-2.116,13.022l-17.391,13.525
				c-3.776,2.906-4.864,8.134-2.56,12.305c8.622,16.54,20.1,31.427,33.903,43.972c12.556,13.806,27.454,25.284,44.006,33.903
				c4.171,2.304,9.399,1.216,12.305-2.56l13.525-17.391c3.115-4.01,8.798-4.933,13.022-2.116l21.862,14.575l24.593,16.401
				c4.305,2.864,5.598,8.606,2.935,13.039l-11.657,19.43c-3.093,5.252-8.089,9.112-13.952,10.778
				c-19.371,5.316-62.097,6.391-130.56-62.097s-67.413-111.206-62.097-130.56c1.666-5.863,5.526-10.859,10.778-13.952l19.405-11.665
				c4.433-2.662,10.175-1.369,13.039,2.935L197.827,173.652z"/>
		</g>
		<path style="fill:#FFFFFF;" d="M127,502.467h25.6c-9.414-0.028-17.039-7.653-17.067-17.067V24.6
			c0.028-9.414,7.653-17.039,17.067-17.067H127c-9.414,0.028-17.039,7.653-17.067,17.067v460.8
			C109.961,494.814,117.586,502.439,127,502.467z"/>
	</g>
	<g>
		<polygon style="fill:#FFFFFF;" points="119.467,76.8 119.467,187.733 119.467,426.667 102.4,426.667 102.4,187.733 102.4,76.8 		
			"/>
		<g>
			<path style="fill:#428DFF;" d="M102.4,426.667V486.4c0,14.138,11.462,25.6,25.6,25.6h256c14.138,0,25.6-11.461,25.6-25.6V25.6
				C409.6,11.462,398.138,0,384,0H128c-14.138,0-25.6,11.462-25.6,25.6v85.333c0,4.713,3.821,8.533,8.533,8.533
				s8.533-3.821,8.533-8.533v-25.6h25.6c4.713,0,8.533-3.82,8.533-8.533c0-4.713-3.82-8.533-8.533-8.533h-25.6V25.6
				c0-4.713,3.821-8.533,8.533-8.533h256c4.713,0,8.533,3.821,8.533,8.533v42.667H196.267c-4.713,0-8.533,3.821-8.533,8.533
				c0,4.713,3.821,8.533,8.533,8.533h196.267v332.8h-25.6c-4.713,0-8.533,3.82-8.533,8.533s3.82,8.533,8.533,8.533h25.6v51.2
				c0,4.713-3.82,8.533-8.533,8.533H128c-4.713,0-8.533-3.82-8.533-8.533v-51.2h196.267c4.713,0,8.533-3.82,8.533-8.533
				s-3.821-8.533-8.533-8.533H119.467V179.2c0-4.713-3.821-8.533-8.533-8.533s-8.533,3.821-8.533,8.533V426.667z"/>
			<path style="fill:#428DFF;" d="M110.933,153.6c3.467,0.02,6.601-2.059,7.931-5.261c1.329-3.202,0.59-6.89-1.872-9.331
				l-1.28-1.024c-0.476-0.323-0.992-0.581-1.536-0.768c-0.484-0.246-1.001-0.419-1.536-0.512c-0.564-0.095-1.135-0.152-1.707-0.171
				c-2.259,0.033-4.422,0.917-6.059,2.475c-0.771,0.816-1.38,1.772-1.792,2.816c-1.287,3.183-0.586,6.825,1.792,9.301
				c0.816,0.771,1.772,1.38,2.816,1.792C108.717,153.355,109.818,153.587,110.933,153.6z"/>
			<path style="fill:#428DFF;" d="M247.467,460.8c-4.713,0-8.533,3.821-8.533,8.533c0,4.713,3.821,8.533,8.533,8.533h17.067
				c4.713,0,8.533-3.821,8.533-8.533c0-4.713-3.82-8.533-8.533-8.533H247.467z"/>
			<path style="fill:#428DFF;" d="M224.623,215.595c7.496-5.882,9.223-16.533,3.968-24.482l-30.976-46.473
				c-5.396-8.092-16.198-10.515-24.533-5.504l-19.43,11.648c-7.15,4.214-12.389,11.035-14.618,19.029
				c-7.322,26.701-2.116,72.465,64.299,138.871c52.582,52.574,92.22,66.782,119.706,66.782c6.472,0.027,12.918-0.814,19.166-2.5
				c7.988-2.233,14.802-7.471,19.012-14.618l11.691-19.43c5.023-8.335,2.594-19.148-5.513-24.533l-46.541-30.985
				c-7.958-5.243-18.606-3.51-24.491,3.985l-13.525,17.391c-0.323,0.448-0.927,0.59-1.417,0.333l-2.56-1.425
				c-14.797-8.082-28.142-18.577-39.484-31.053c-12.475-11.342-22.971-24.687-31.053-39.484l-1.425-2.611
				c-0.26-0.486-0.118-1.09,0.333-1.408L224.623,215.595z M192,238.839l1.348,2.475c8.833,16.249,20.314,30.912,33.971,43.383
				c12.472,13.657,27.134,25.138,43.383,33.971l2.466,1.348c7.84,4.399,17.721,2.37,23.194-4.762l13.525-17.391
				c0.374-0.473,1.047-0.584,1.553-0.256l46.455,30.967c0.518,0.341,0.673,1.032,0.35,1.562l-11.648,19.422
				c-1.956,3.376-5.142,5.866-8.892,6.946c-18.313,5.001-58.487,3.908-122.291-59.904s-64.922-104.004-59.904-122.291
				c1.081-3.75,3.57-6.936,6.946-8.892l19.422-11.648c0.179-0.113,0.386-0.172,0.597-0.171c0.384,0.001,0.742,0.193,0.956,0.512
				l16.845,25.276l14.114,21.146c0.331,0.507,0.224,1.182-0.247,1.562l-17.399,13.525C189.598,221.096,187.574,230.999,192,238.839z
				"/>
		</g>
	</g>
</g>
<g>
</g>
<g>
</g>
<g>
</g>
<g>
</g>
<g>
</g>
<g>
</g>
<g>
</g>
<g>
</g>
<g>
</g>
<g>
</g>
<g>
</g>
<g>
</g>
<g>
</g>
<g>
</g>
<g>
</g>
</svg>
